<svg xmlns="http://www.w3.org/2000/svg" viewBox="0 0 400 400">
  <!-- Background -->
  <rect width="400" height="400" rx="24" fill="#EFF6FF"/>
  <!-- Bar chart bars -->
  <rect x="80" y="220" width="40" height="100" rx="8" fill="#2563EB" opacity="0.3"/>
  <rect x="140" y="180" width="40" height="140" rx="8" fill="#2563EB" opacity="0.5"/>
  <rect x="200" y="140" width="40" height="180" rx="8" fill="#2563EB" opacity="0.7"/>
  <rect x="260" y="100" width="40" height="220" rx="8" fill="#2563EB" opacity="0.9"/>
  <!-- Baseline -->
  <rect x="60" y="320" width="260" height="3" rx="1.5" fill="#2563EB" opacity="0.2"/>
  <!-- Capsule pill -->
  <rect x="240" y="60" width="100" height="36" rx="18" fill="#7C3AED" opacity="0.85"/>
  <line x1="290" y1="60" x2="290" y2="96" stroke="#EFF6FF" stroke-width="2" opacity="0.5"/>
  <!-- AI brain icon (abstract) -->
  <circle cx="100" cy="78" r="28" fill="#059669" opacity="0.2"/>
  <circle cx="100" cy="78" r="18" fill="#059669" opacity="0.4"/>
  <circle cx="92" cy="72" r="6" fill="#059669" opacity="0.7"/>
  <circle cx="108" cy="72" r="6" fill="#059669" opacity="0.7"/>
  <circle cx="100" cy="86" r="5" fill="#059669" opacity="0.7"/>
  <!-- Connections in brain -->
  <line x1="92" y1="72" x2="108" y2="72" stroke="#059669" stroke-width="1.5" opacity="0.5"/>
  <line x1="100" y1="86" x2="92" y2="72" stroke="#059669" stroke-width="1.5" opacity="0.5"/>
  <line x1="100" y1="86" x2="108" y2="72" stroke="#059669" stroke-width="1.5" opacity="0.5"/>
</svg>